# Blender 3.1.0
# www.blender.org
mtllib goddard.mtl
o Plane
v -2.112020 1.656648 -0.449184
v -1.062510 1.656648 -0.464007
v -2.108351 1.656648 -2.269864
v -1.028946 1.656648 -2.282804
v -0.199772 1.656648 -0.464007
v -0.194170 1.656648 -0.318350
v 0.013112 1.656648 -0.318350
v 0.013112 1.656648 1.956590
v 1.794921 1.656648 1.956590
v 1.798812 1.656648 1.797083
v 1.973880 1.656648 1.789302
v 1.985552 1.656648 1.065685
v 1.814373 1.656648 1.057904
v 1.810483 1.656648 0.894507
v 0.830099 1.656648 0.878945
v 0.833989 1.656648 -0.315412
v 0.962373 1.656648 -0.323193
v 0.954592 1.656648 -0.762810
v 0.950701 1.656648 -1.408619
v -0.135909 1.656648 -1.418795
v -0.134415 1.656648 -1.292808
v -1.019626 1.656648 -1.293710
v -2.112020 4.926366 -0.449184
v -1.062510 4.926366 -0.464007
v -2.108351 4.926366 -2.269864
v -1.028946 4.926366 -2.282804
v -0.199772 4.926366 -0.464007
v -0.194170 4.926366 -0.318350
v 0.013112 4.926366 -0.318350
v 0.013112 4.926366 1.956590
v 1.794921 4.926366 1.956590
v 1.798812 4.926366 1.797083
v 1.973880 4.926366 1.789302
v 1.985552 4.926366 1.065685
v 1.814373 4.926366 1.057904
v 1.810483 4.926366 0.894507
v 0.830099 4.926366 0.878945
v 0.833989 4.926366 -0.315412
v 0.962373 4.926366 -0.323193
v 0.954592 4.926366 -0.762810
v 0.950701 4.926366 -1.408619
v -0.135909 4.926366 -1.418795
v -0.134415 4.926366 -1.292808
v -1.019626 4.926366 -1.293710
vn -0.0000 1.0000 -0.0000
vn -0.0000 -1.0000 -0.0000
vn 1.0000 -0.0000 0.0020
vn -0.0605 -0.0000 -0.9982
vn -0.9997 -0.0000 -0.0244
vn -0.0141 -0.0000 -0.9999
vn -0.9998 -0.0000 0.0177
vn -0.0444 -0.0000 -0.9990
vn 0.0120 -0.0000 0.9999
vn -1.0000 -0.0000 0.0060
vn -0.9999 -0.0000 -0.0161
vn -0.0000 -0.0000 -1.0000
vn -0.0094 -0.0000 1.0000
vn -0.0454 -0.0000 0.9990
vn 0.9993 -0.0000 -0.0384
vn 0.9999 -0.0000 -0.0119
vn -0.9997 -0.0000 0.0238
vn -0.0010 -0.0000 1.0000
vn -0.0159 -0.0000 0.9999
vn 1.0000 -0.0000 -0.0000
vn -1.0000 -0.0000 0.0094
vn -1.0000 -0.0000 -0.0033
vt 0.000000 0.000000
vt 0.000000 0.000000
vt 0.000000 0.000000
vt 0.000000 0.000000
vt 0.000000 0.000000
vt 0.000000 0.000000
vt 0.000000 0.000000
vt 0.000000 0.000000
vt 0.000000 0.000000
vt 0.000000 0.000000
vt 0.000000 0.000000
vt 0.000000 0.000000
vt 0.000000 0.000000
vt 0.000000 0.000000
vt 0.000000 0.000000
vt 0.000000 0.000000
vt 0.000000 0.000000
vt 0.000000 0.000000
vt 0.000000 0.000000
vt 0.000000 0.000000
vt 0.000000 0.000000
vt 0.000000 0.000000
vt 0.000000 0.000000
vt 0.000000 0.000000
vt 0.000000 0.000000
vt 0.000000 0.000000
vt 0.000000 0.000000
vt 0.000000 0.000000
vt 0.000000 0.000000
vt 0.000000 0.000000
vt 0.000000 0.000000
vt 0.000000 0.000000
vt 0.000000 0.000000
vt 0.000000 0.000000
vt 0.000000 0.000000
vt 0.000000 0.000000
vt 0.000000 0.000000
vt 0.000000 0.000000
vt 0.000000 0.000000
vt 0.000000 0.000000
vt 0.000000 0.000000
vt 0.000000 0.000000
vt 0.000000 0.000000
vt 0.000000 0.000000
s 0
f 3/3/1 1/1/1 2/2/1 5/5/1 6/6/1 7/7/1 8/8/1 9/9/1 10/10/1 11/11/1 12/12/1 13/13/1 14/14/1 15/15/1 16/16/1 17/17/1 18/18/1 19/19/1 20/20/1 21/21/1 22/22/1 4/4/1
f 25/25/2 26/26/2 44/44/2 43/43/2 42/42/2 41/41/2 40/40/2 39/39/2 38/38/2 37/37/2 36/36/2 35/35/2 34/34/2 33/33/2 32/32/2 31/31/2 30/30/2 29/29/2 28/28/2 27/27/2 24/24/2 23/23/2
f 1/1/3 3/3/3 25/25/3 23/23/3
f 17/17/4 16/16/4 38/38/4 39/39/4
f 10/10/5 9/9/5 31/31/5 32/32/5
f 2/2/6 1/1/6 23/23/6 24/24/6
f 18/18/7 17/17/7 39/39/7 40/40/7
f 11/11/8 10/10/8 32/32/8 33/33/8
f 3/3/9 4/4/9 26/26/9 25/25/9
f 19/19/10 18/18/10 40/40/10 41/41/10
f 12/12/11 11/11/11 33/33/11 34/34/11
f 5/5/12 2/2/12 24/24/12 27/27/12
f 20/20/13 19/19/13 41/41/13 42/42/13
f 13/13/14 12/12/14 34/34/14 35/35/14
f 6/6/15 5/5/15 27/27/15 28/28/15
f 21/21/16 20/20/16 42/42/16 43/43/16
f 14/14/17 13/13/17 35/35/17 36/36/17
f 7/7/12 6/6/12 28/28/12 29/29/12
f 22/22/18 21/21/18 43/43/18 44/44/18
f 15/15/19 14/14/19 36/36/19 37/37/19
f 8/8/20 7/7/20 29/29/20 30/30/20
f 4/4/21 22/22/21 44/44/21 26/26/21
f 16/16/22 15/15/22 37/37/22 38/38/22
f 9/9/12 8/8/12 30/30/12 31/31/12
